<svg xmlns="http://www.w3.org/2000/svg" viewBox="0 0 1600 900" role="img" aria-labelledby="title desc">
	<title id="title">Secure AI systems map</title>
	<desc id="desc">A restrained system map connecting financial infrastructure, cryptography, secure RAG, and agent governance.</desc>
	<rect width="1600" height="900" fill="#f7f4ec" />
	<g opacity="0.32" stroke="#d8d0c1" stroke-width="1">
		<path d="M0 90h1600M0 180h1600M0 270h1600M0 360h1600M0 450h1600M0 540h1600M0 630h1600M0 720h1600M0 810h1600" />
		<path d="M100 0v900M200 0v900M300 0v900M400 0v900M500 0v900M600 0v900M700 0v900M800 0v900M900 0v900M1000 0v900M1100 0v900M1200 0v900M1300 0v900M1400 0v900M1500 0v900" />
	</g>
	<g fill="none" stroke-linecap="round" stroke-linejoin="round">
		<path d="M278 454C440 260 612 210 792 304c205 107 312 64 500-122" stroke="#183a59" stroke-width="10" opacity="0.36" />
		<path d="M306 634c172-82 322-84 450-8 187 111 365 78 556-98" stroke="#c06b32" stroke-width="8" opacity="0.42" />
		<path d="M360 242c146 116 270 149 430 98 156-50 318-22 486 86" stroke="#4c6b5b" stroke-width="7" opacity="0.35" />
	</g>
	<g font-family="Atkinson Hyperlegible, PingFang SC, sans-serif" font-size="34" font-weight="700">
		<g transform="translate(210 320)">
			<rect width="290" height="128" rx="22" fill="#fffdf8" stroke="#b9ad99" stroke-width="2" />
			<circle cx="58" cy="64" r="22" fill="#183a59" />
			<text x="100" y="58" fill="#1f2932">Crypto</text>
			<text x="100" y="94" fill="#6f6252" font-size="22" font-weight="500">PQC / FHE / ZK</text>
		</g>
		<g transform="translate(650 220)">
			<rect width="320" height="140" rx="24" fill="#fffdf8" stroke="#b9ad99" stroke-width="2" />
			<circle cx="64" cy="70" r="23" fill="#c06b32" />
			<text x="108" y="65" fill="#1f2932">Agent Memory</text>
			<text x="108" y="101" fill="#6f6252" font-size="22" font-weight="500">Governance / Audit</text>
		</g>
		<g transform="translate(980 495)">
			<rect width="330" height="140" rx="24" fill="#fffdf8" stroke="#b9ad99" stroke-width="2" />
			<circle cx="64" cy="70" r="23" fill="#4c6b5b" />
			<text x="108" y="65" fill="#1f2932">Secure RAG</text>
			<text x="108" y="101" fill="#6f6252" font-size="22" font-weight="500">Least exposure</text>
		</g>
		<g transform="translate(460 620)">
			<rect width="380" height="138" rx="24" fill="#fffdf8" stroke="#b9ad99" stroke-width="2" />
			<circle cx="64" cy="70" r="23" fill="#183a59" />
			<text x="108" y="65" fill="#1f2932">Financial AI</text>
			<text x="108" y="101" fill="#6f6252" font-size="22" font-weight="500">Infrastructure security</text>
		</g>
	</g>
	<g fill="#183a59">
		<circle cx="522" cy="385" r="9" />
		<circle cx="647" cy="296" r="9" />
		<circle cx="945" cy="346" r="9" />
		<circle cx="1180" cy="552" r="9" />
		<circle cx="705" cy="688" r="9" />
	</g>
</svg>
